<svg xmlns="http://www.w3.org/2000/svg" viewBox="0 0 1200 1200"><defs><style>.cls-1{fill:#fbeac2;}.cls-2{fill:#9dc044;}.cls-3{fill:#d78800;}.cls-4{fill:#fff;}.cls-5{fill:#b5f4ef;}.cls-6{fill:#cff9f5;}.cls-7{fill:none;}.cls-8{fill:#ffc300;}.cls-9{fill:#83a03b;}.cls-10{fill:#cbcbcb;}.cls-11{fill:#e2e2e2;}</style></defs><title>Prancheta 1_svg</title><g id="BACKGROUND"><rect class="cls-1" width="1200" height="1200"/></g><g id="TITLE_-_Joule_energias." data-name="TITLE - Joule energias."><path class="cls-2" d="M561,914.35a19.4,19.4,0,0,0,13.52-5,36.52,36.52,0,0,0,8.75-11.92c1.06-2.12,2.29-3.26,3.71-3.45a6.43,6.43,0,0,1,4.24,1.06,9.67,9.67,0,0,1,3.44,4,9.38,9.38,0,0,1,.8,5.83,26.18,26.18,0,0,1-5.83,10.6,44.1,44.1,0,0,1-9.81,8.21,41.58,41.58,0,0,1-11.92,5,34.11,34.11,0,0,1-11.66,1.06Q550.35,944,540,952.77t-26.77,5.57A27.63,27.63,0,0,1,495,946.94a49.31,49.31,0,0,1-8.48-21.73,93.37,93.37,0,0,1,0-26.24,88.05,88.05,0,0,1,6.63-24.38,63.46,63.46,0,0,1,15.37-22.79q10.06-9.54,25.44-8.48a22.53,22.53,0,0,1,14.57,6.36,37.65,37.65,0,0,1,9.27,14.58,74,74,0,0,1,4,20.14,112.3,112.3,0,0,1-.79,23.05,8,8,0,0,0-.27,3.45A18.47,18.47,0,0,1,561,914.35ZM521.74,944q9.54.53,15.64-7.68a52.55,52.55,0,0,0,8.75-19.87A117.54,117.54,0,0,0,549,893.15q.26-11.65-1.85-18.55-2.66-8.47-8-11.93t-12.72,6.63a65.68,65.68,0,0,0-9.54,17,129.94,129.94,0,0,0-5.83,19.08,30.8,30.8,0,0,0-1.06,9.27,60.79,60.79,0,0,0,1.32,12.46,34.06,34.06,0,0,0,4.51,11.4,10.06,10.06,0,0,0,9,5Z"/><path class="cls-2" d="M655.29,958.34q-12.72-3.7-16.7-17a76.63,76.63,0,0,1-3.45-25.44A155.82,155.82,0,0,1,624.29,935q-6.63,10.07-11.4,15.9-2.12,2.13-4,3.71a16,16,0,0,1-4.5,2.65,13.5,13.5,0,0,1-9.81-.53,34.56,34.56,0,0,1-9.54-6.09,42.58,42.58,0,0,1-7.95-9.54,33.26,33.26,0,0,1-4.51-10.87q-1.59-8.47-.53-21.2a230.05,230.05,0,0,1,3.44-24.91q2.39-12.19,4.77-21.73t2.92-12.72c.71-2.47,2.82-4.15,6.36-5a33.81,33.81,0,0,1,20.67,1.59q4.23,1.86,3.18,4.5a101.7,101.7,0,0,0-5.57,14.58q-2.92,9.28-5.56,19.88t-4.5,20.94a102.22,102.22,0,0,0-1.85,17.75q0,14.84,4.77,17.49t10.6-5.83a81,81,0,0,0,4-8q2.39-5.29,5.3-11.4t5.56-12.72q2.65-6.62,4.24-11.39a65.56,65.56,0,0,0,2.12-6.36c.35-1.41.79-3.09,1.33-5s1.41-4.94,2.65-9,3.26-10.15,6.1-18.29q2.11-6.88,7.68-8.21a18.63,18.63,0,0,1,11.13.79,27.76,27.76,0,0,1,9.8,6.36q4.24,4.25,3.71,9,0,2.66-3.44,15.1t-6.36,26.77a169.09,169.09,0,0,0-3.45,26q-.53,11.66,5.3,13.25,3.7,1.07,7.68-4a66.35,66.35,0,0,0,7.69-13q3.7-7.95,6.89-16.7t5.3-15.63a4.26,4.26,0,0,1,3.71-2.92,8.49,8.49,0,0,1,5,1.06,16.08,16.08,0,0,1,4.24,3.45q1.85,2.12,1.33,3.71a211.29,211.29,0,0,1-7.42,21.46A107.57,107.57,0,0,1,690,941.38a51,51,0,0,1-15.37,14.84Q665.89,961.52,655.29,958.34Z"/><path class="cls-2" d="M748.57,753.76a385.81,385.81,0,0,0-13.51,42.4q-6.1,23.33-10.33,46.64t-6.36,44q-2.12,20.67-2.12,33.39a64.2,64.2,0,0,0,1.59,15.37q1.59,6.36,8,6.36,3.18,0,7.16-5.56a81.14,81.14,0,0,0,7.42-13q3.44-7.42,6.36-15.63t4.5-14a2.85,2.85,0,0,1,2.65-1.86,10.23,10.23,0,0,1,4.51.53,12.23,12.23,0,0,1,4,2.12,3.17,3.17,0,0,1,1.06,3.44q-8.48,29.69-18.55,45.05t-28.09,15.37q-13.79,0-20.67-10.87t-6.36-34.71q.53-17,2.65-40t5.83-46.37q3.7-23.32,8.48-44.79t10.07-35.25a13.46,13.46,0,0,1,8.75-8.21,19.68,19.68,0,0,1,11.92,0,20.82,20.82,0,0,1,9.54,6.09A8.66,8.66,0,0,1,748.57,753.76Z"/><path class="cls-2" d="M841.31,897.92a4.78,4.78,0,0,1,3.45-3.18,14.71,14.71,0,0,1,4.77-.26,11,11,0,0,1,4.24,1.33c1.23.71,1.86,1.42,1.86,2.12q-8.48,29.15-29.15,45.85t-46.11,14.58q-17-1.59-25.44-10.33a40.57,40.57,0,0,1-10.87-20.67,59.55,59.55,0,0,1,.53-24.91,89.5,89.5,0,0,1,8.75-23.58,88.07,88.07,0,0,1,22-25.44q13-10.06,31.54-10.07,10.6,0,15.37,6.09a24.27,24.27,0,0,1,5,14.58,42.38,42.38,0,0,1-3.44,17.49,45.46,45.46,0,0,1-10.6,15.63,33.73,33.73,0,0,1-16.43,8.75q-9.54,2.12-20.14-3.71a39.67,39.67,0,0,0-5,11.4,33.69,33.69,0,0,0-1.06,13.25,21.68,21.68,0,0,0,5,11.66q4.24,5,12.19,5.56Q800,945.1,815.87,932.9T841.31,897.92Zm-33.92-38.69q-3.18-1.06-7.95,2.92a50.55,50.55,0,0,0-8.75,9.54,64.21,64.21,0,0,0-6.36,10.87q-2.38,5.3-.26,6.89,6.36,4.77,12.72,1.33A27.46,27.46,0,0,0,807.12,881a28.65,28.65,0,0,0,4.5-13Q812.15,861.35,807.39,859.23Z"/><path class="cls-2" d="M476.8,972.45a13.09,13.09,0,0,1-4.67-1.48,38.2,38.2,0,0,0-8.21-2.54,66.67,66.67,0,0,0-13.37-1.18,93.77,93.77,0,0,0-20.14,2.61q7.29.12,15.17-.11a34.31,34.31,0,0,1,14.5,2.56q-4.9,10.56-10.36,20a108.74,108.74,0,0,1-12.27,17.24,101.63,101.63,0,0,1-15.15,14.11,83.2,83.2,0,0,1-19.22,10.71q-14.18,5.89-24.35,7.71a60.94,60.94,0,0,1-17.24,1,28.28,28.28,0,0,1-11.47-3.48,23.71,23.71,0,0,1-6.9-6.06,20.8,20.8,0,0,1-3.43-6.78,26.09,26.09,0,0,1-1-5.53,29,29,0,0,1,1.79-12.4,40.47,40.47,0,0,1,8.15-13.13,80.25,80.25,0,0,1,15.44-13,149.51,149.51,0,0,1,23.71-12.54,270.49,270.49,0,0,1,25.3-9.65q11.63-3.71,21.68-5.85l.07-1.72q.25-2.51,1.29-12.45t2.38-23.85q1.34-13.91,2.75-30.15t2.15-31.73q.73-15.49.5-28.45t-1.75-20.1a3.59,3.59,0,0,1,1.76-3.93,14.76,14.76,0,0,1,5.88-2,31.42,31.42,0,0,1,8.07-.06,40.13,40.13,0,0,1,8.29,1.79,18.26,18.26,0,0,1,6.44,3.58,7.22,7.22,0,0,1,2.68,5.13q0,44.93-1.65,79.6t-7.51,61.07q14.16.4,21.23,3.74t7.79,5.24q.64,1.68-1.19,3.84a20.71,20.71,0,0,1-4.86,4,32.08,32.08,0,0,1-6.44,3.06A17.61,17.61,0,0,1,476.8,972.45ZM391,1012.89a51.06,51.06,0,0,0,13.71-7.76,71.73,71.73,0,0,0,11-10.82A91.19,91.19,0,0,0,424.17,982a108.88,108.88,0,0,0,6-12.08,177,177,0,0,0-17.81,5.22q-9.82,3.38-22.23,8.84-13.46,5.86-20.8,11.31a55.51,55.51,0,0,0-10.66,9.74q-3.31,4.28-3.66,7.19a10.07,10.07,0,0,0,0,3.75,8.31,8.31,0,0,0,1.72,2.6q1.23,1.34,4.92,1.5a46.72,46.72,0,0,0,10.62-1.27A131,131,0,0,0,391,1012.89Zm62.56-273.58q2.68-2.47,9-3a57.42,57.42,0,0,1,12.73.46,34.66,34.66,0,0,1,10.6,3.08q4.2,2.15,2.39,5A168.2,168.2,0,0,0,480,762a59.47,59.47,0,0,0-4.51,23.33q-.12,2.22-3.31,2.71a26,26,0,0,1-7.4-.08,39.67,39.67,0,0,1-8-1.91,16,16,0,0,1-4.89-2.36c-.61-.74-1.11-2.27-1.52-4.61a58.76,58.76,0,0,1-.77-8q-.16-4.52,0-9.79t.62-9.78a50.67,50.67,0,0,1,1.34-7.88Q452.48,740.22,453.58,739.31Z"/><path class="cls-3" d="M515,1003.1H502.5V979.84H515V982H505v7.38h9.2v2.23H505v9.33h10Z"/><path class="cls-3" d="M556.95,1003.13h-2.72L543,984.49v18.6h-2.59V979.84H543l11.43,19.33V979.84h2.49Z"/><path class="cls-3" d="M595.44,1003.1H582.92V979.84h12.52V982h-10v7.38h9.2v2.23h-9.2v9.33h10Z"/><path class="cls-3" d="M625.41,992.17h-2.06v10.9h-2.49V979.81h6.71a7.39,7.39,0,0,1,5.1,1.54,6,6,0,0,1,.33,8.06,5.18,5.18,0,0,1-3.41,1.93,4.74,4.74,0,0,1,2.31,1,10,10,0,0,1,1.61,2.91l3.29,7.77h-2.62L631,995.62a5.85,5.85,0,0,0-2-2.77A7,7,0,0,0,625.41,992.17Zm2-10.23h-4.08V990h3.75a4.42,4.42,0,0,0,3.27-1.21,4.16,4.16,0,0,0,1.21-3.07,3.61,3.61,0,0,0-1.1-2.84A4.43,4.43,0,0,0,627.43,981.94Z"/><path class="cls-3" d="M669.82,1003.3a9.65,9.65,0,0,1-7.66-3.25,12.75,12.75,0,0,1-2.84-8.69q0-5.43,2.69-8.64a9.26,9.26,0,0,1,7.51-3.21,17.43,17.43,0,0,1,6.21,1.2l-.6,2.06a14.37,14.37,0,0,0-3-.78,17.9,17.9,0,0,0-2.82-.32,6.66,6.66,0,0,0-5.51,2.56,10.82,10.82,0,0,0-2,6.91,11.53,11.53,0,0,0,2.14,7.18,6.61,6.61,0,0,0,5.5,2.82,14.61,14.61,0,0,0,4.45-.66v-7h-4.85V991.3h7.34v10.2A13,13,0,0,1,669.82,1003.3Z"/><path class="cls-3" d="M704.7,1003.1h-2.49V979.84h2.49Z"/><path class="cls-3" d="M746.46,1003.1h-2.79l-2.33-7.34H733l-2.29,7.34h-2.62l7.64-23.25h3Zm-5.68-9.5-3.55-11.23-3.59,11.23Z"/><path class="cls-3" d="M781.53,980.67,781,982.9l-1.93-.57a15.47,15.47,0,0,0-3.55-.5q-3.92,0-3.92,3.49a3.1,3.1,0,0,0,1.2,2.51,9.21,9.21,0,0,0,2.91,1.56q1.71.58,3.42,1.26a7.3,7.3,0,0,1,2.91,2.09,5.34,5.34,0,0,1,1.2,3.57,6.59,6.59,0,0,1-2,5.13,8.24,8.24,0,0,1-5.75,1.84,13.28,13.28,0,0,1-3.74-.55,12.82,12.82,0,0,1-3.07-1.28l.83-1.89a13.69,13.69,0,0,0,5.73,1.4,6.62,6.62,0,0,0,4.12-1.1,3.8,3.8,0,0,0,1.41-3.19,3.66,3.66,0,0,0-2.29-3.32,20.93,20.93,0,0,0-2.28-1q-1.25-.46-2.49-1a13.81,13.81,0,0,1-2.26-1.25,5.34,5.34,0,0,1-1.66-1.89,5.77,5.77,0,0,1-.65-2.79,5.57,5.57,0,0,1,1.71-4.38,6.65,6.65,0,0,1,4.6-1.53A18,18,0,0,1,781.53,980.67Z"/><path class="cls-3" d="M799.37,1003.1h-2.49v-3.52h2.49Z"/><path class="cls-2" d="M869.92,215a16.12,16.12,0,0,1-4.73,11.52,16.42,16.42,0,0,1-11.58,4.71,16.86,16.86,0,0,1-6.5-1.22,15.45,15.45,0,0,1-5.1-3.36,15.24,15.24,0,0,1-3.34-5.08,17,17,0,0,1-1.2-6.47,16,16,0,0,1,4.73-11.48,16.11,16.11,0,0,1,5.17-3.42,16.4,16.4,0,0,1,6.41-1.25,17.13,17.13,0,0,1,6.5,1.2,15,15,0,0,1,8.45,8.43A16.85,16.85,0,0,1,869.92,215Zm-3.74.25a14.71,14.71,0,0,0-.93-5.35,12.29,12.29,0,0,0-2.59-4.13,11.18,11.18,0,0,0-3.94-2.64,13.19,13.19,0,0,0-4.94-.91,12.9,12.9,0,0,0-5.17,1,12,12,0,0,0-4,2.74,12.18,12.18,0,0,0-2.55,4,13.48,13.48,0,0,0-.89,4.92,14.58,14.58,0,0,0,.93,5.31,12.26,12.26,0,0,0,2.59,4.13,11.39,11.39,0,0,0,3.94,2.66,13.64,13.64,0,0,0,10.13-.08,11.91,11.91,0,0,0,6.5-6.77A13.5,13.5,0,0,0,866.19,215.24Zm-4.9,7.6a.77.77,0,0,1-.06.31.42.42,0,0,1-.31.21,5,5,0,0,1-.71.1q-.46,0-1.25,0t-1.14,0a2.69,2.69,0,0,1-.71-.15.93.93,0,0,1-.42-.29,1.37,1.37,0,0,1-.23-.52l-.87-2.86a4.82,4.82,0,0,0-1.18-2.14,3,3,0,0,0-2.05-.6h-1.12v5.81a.62.62,0,0,1-.35.62,4.87,4.87,0,0,1-1.64.17,5.5,5.5,0,0,1-1.7-.17.62.62,0,0,1-.42-.62v-14.9a2.09,2.09,0,0,1,.46-1.43,1.73,1.73,0,0,1,1.37-.52h4.77a13.19,13.19,0,0,1,2.93.29,6.13,6.13,0,0,1,2.16.91,4.06,4.06,0,0,1,1.35,1.56,5,5,0,0,1,.46,2.22,4.23,4.23,0,0,1-1.08,3.09,6,6,0,0,1-2.91,1.56,5.28,5.28,0,0,1,1.87,1.12A6.25,6.25,0,0,1,860,219l1,2.66A6.06,6.06,0,0,1,861.29,222.83Zm-5.15-11.5a3.05,3.05,0,0,0-.12-.87,1.57,1.57,0,0,0-.48-.73,2.38,2.38,0,0,0-.93-.48,5.39,5.39,0,0,0-1.45-.17h-1.91v4.65h1.83a3.39,3.39,0,0,0,2.41-.66A2.36,2.36,0,0,0,856.14,211.34Z"/></g><g id="LOGO"><g id="BASE_BRANCA" data-name="BASE BRANCA"><circle class="cls-4" cx="621.06" cy="437" r="273.95"/></g><circle id="CÉU_BASE" class="cls-5" cx="624.56" cy="419.4" r="238.92"/><circle id="TERRA_ESCURA" class="cls-6" cx="528.66" cy="486.33" r="136.67"/><path class="cls-7" d="M595.36,560.74a59.62,59.62,0,0,0,11.1,11l7.31-18.44Z"/><path class="cls-7" d="M651,583.59A60.62,60.62,0,0,0,666,579.52L653.76,564Z"/><path class="cls-7" d="M583.43,532.05a60.62,60.62,0,0,0,4.07,15.07L603,534.84Z"/><path class="cls-7" d="M587.38,501.2a59.61,59.61,0,0,0-4,15.13L603,513.44Z"/><path class="cls-7" d="M679.66,571.66a59.62,59.62,0,0,0,11-11.1l-18.44-7.31Z"/><path class="cls-7" d="M606.28,476.44a59.61,59.61,0,0,0-11,11.1l18.44,7.31Z"/><path class="cls-7" d="M620.12,579.64a59.62,59.62,0,0,0,15.13,4L632.36,564Z"/><path class="cls-7" d="M632.18,484.11,635,464.51a60.62,60.62,0,0,0-15.07,4.07Z"/><path class="cls-7" d="M665.82,468.46a59.62,59.62,0,0,0-15.13-4l2.89,19.62Z"/><path class="cls-7" d="M702.51,516A60.62,60.62,0,0,0,698.44,501l-15.53,12.28Z"/><path class="cls-7" d="M690.58,487.36a59.61,59.61,0,0,0-11.1-11l-7.31,18.44Z"/><path class="cls-7" d="M698.56,546.9a59.61,59.61,0,0,0,4-15.13L683,534.66Z"/><path class="cls-8" d="M702.25,558.11c-1.12,1.95-2.32,3.81-3.6,5.6l43,17-36.39-28.58C704.37,554.19,703.37,556.17,702.25,558.11Z"/><path class="cls-8" d="M636.49,592.09,643.24,638,649.77,592A68.38,68.38,0,0,1,636.49,592.09Z"/><path class="cls-8" d="M671.33,586.21,700.1,622.6l-17.27-43A68.37,68.37,0,0,1,671.33,586.21Z"/><path class="cls-8" d="M616.11,587.17c-2-1-3.89-2.18-5.73-3.39L594.93,627.4,622.14,590C620.11,589.14,618.09,588.21,616.11,587.17Z"/><path class="cls-8" d="M649.45,456l-6.75-45.88-6.53,45.93A68.38,68.38,0,0,1,649.45,456Z"/><path class="cls-8" d="M710.68,535.38l45.88-6.75-45.93-6.53A68.38,68.38,0,0,1,710.68,535.38Z"/><path class="cls-8" d="M677,464.77c1.95,1.12,3.81,2.32,5.6,3.6l17-43-28.58,36.4C673.11,462.65,675.09,463.65,677,464.77Z"/><path class="cls-8" d="M705.13,495.69l36.39-28.77-43,17.27A68.38,68.38,0,0,1,705.13,495.69Z"/><path class="cls-8" d="M580.81,552.41l-36.39,28.77,43-17.27A68.38,68.38,0,0,1,580.81,552.41Z"/><path class="cls-8" d="M574.93,517.57l-45.88,6.75L575,530.85A68.38,68.38,0,0,1,574.93,517.57Z"/><path class="cls-8" d="M614.61,461.89,585.84,425.5l17.27,43A68.38,68.38,0,0,1,614.61,461.89Z"/><path class="cls-8" d="M583.69,490c1.12-1.95,2.32-3.81,3.6-5.6l-43-17,36.4,28.58C581.57,493.91,582.57,491.93,583.69,490Z"/><circle class="cls-8" cx="642.97" cy="524.05" r="56.95" transform="translate(-131.74 820.47) rotate(-60.12)"/><path class="cls-9" d="M852.12,534.48A161.23,161.23,0,0,0,717.65,503c-84.51,18.14-137.16,94.4-123.27,178.62,8.07.31,15,1.79,23.26,1.4C721.3,678.06,808.16,620.62,852.12,534.48Z"/><path class="cls-2" d="M381.22,493c12.42,106.9,116.17,190.23,242.19,190a167.14,167.14,0,0,0,51.7-8.48c5.47-48.84-11.87-95.79-52.19-135.4C560.88,478.19,462.52,461.89,381.22,493Z"/><path class="cls-10" d="M374.08,355.05s39.32-8.27,58.94-12.62c9.61-2.13,19.27-4,29-5.81,3.32-.61,5.21-2.1,5.92-5.45,1.05-5,3.73-9.11,8.6-10.93,5.35-2,4.26-2.65,5.09-7.61.28-1.65,1.32-27.47,7.77-37.55,7.79-12.17,28.13-45.27,29.85-44.24,0,0-8.06,25.23-11.77,36.14-5.46,16.07-10.82,32.17-16.36,48.2-1.13,3.26-1,4.49,2.13,7.67,3.32,3.37,5.14,7.3,4.58,11.84-.5,4.06.93,6.84,4.42,8,18.07,5.9,26.09,21,34.09,36.34,5.72,11,18.61,37.41,18.61,37.41S503.37,360.14,496.12,352c-1.85-2.07-3.6-6.53-7.22-3.71-4,3.11-2.14,4.89-1.9,7.64q4.56,50.33,9.18,100.65c1.45,15.63,3.1,31.23,4.71,46.84A28.81,28.81,0,0,1,499.26,517c-2.8,7.27-8.09,11.08-15.72,11.48s-12.44-3.95-15.89-10.28c-4.7-8.62-2.23-17.64-1.42-26.51,2.75-30.21,5.66-60.42,8.55-90.62,1.45-15.21,2.8-30.43,4.61-45.59.55-4.61.88-5.12-4.78-9.11-4.52-3.18-5.62-2.12-8.45.07-12.21,9.46-17.5,12-41.33,11.54C400.8,357.57,374.08,355.47,374.08,355.05Z"/><path class="cls-11" d="M492,333.72c0,4.48-4.27,8.61-8.92,8.7-5.06.09-9.49-4-9.46-8.79s4.5-8.83,9.55-8.69C487.79,325.06,492,329.25,492,333.72Z"/></g></svg>